<?xml version="1.0" encoding="iso-8859-1"?>
<svg fill="#000000" height="800px" width="800px" version="1.1" xmlns="http://www.w3.org/2000/svg" viewBox="0 0 495.699 495.699">
<path d="M466.083,219.447c-3.25-1.685-5.631-4.661-6.588-8.198c-0.939-3.534-0.352-7.305,1.628-10.391
	c10.677-16.667,11.969-38.482,1.356-56.82c-10.59-18.345-30.122-28.135-49.883-27.229c-3.655,0.167-7.207-1.209-9.786-3.798
	c-2.601-2.579-3.99-6.142-3.826-9.798c0.907-19.767-8.897-39.31-27.216-49.904c-18.324-10.587-40.178-9.303-56.856,1.389
	c-3.083,1.971-6.855,2.557-10.394,1.609c-3.537-0.944-6.501-3.342-8.177-6.584c-9.117-17.567-27.373-29.578-48.527-29.578
	c-21.168,0-39.423,12.018-48.52,29.578c-1.696,3.25-4.661,5.629-8.199,6.584c-3.537,0.948-7.309,0.371-10.393-1.601
	c-16.661-10.667-38.483-11.942-56.803-1.348c-18.32,10.586-28.126,30.12-27.22,49.881c0.15,3.655-1.223,7.215-3.807,9.798
	c-2.598,2.59-6.149,3.963-9.805,3.798c-19.746-0.9-39.287,8.89-49.881,27.229c-10.575,18.319-9.304,40.141,1.374,56.803
	c1.979,3.085,2.548,6.855,1.608,10.381c-0.936,3.538-3.335,6.521-6.588,8.209C12.018,228.557,0,246.811,0,267.98
	c0,21.025,11.865,39.188,29.229,48.35c18.976,9.996,37.495,22.133,54.21,35.583l73.146,58.902
	c14.148,11.386,19.727,30.37,13.977,47.608c-1.32,3.965-0.653,8.333,1.795,11.727c2.431,3.394,6.368,5.403,10.559,5.403h129.869
	c4.192,0,8.13-2.009,10.561-5.403c2.446-3.394,3.114-7.762,1.793-11.727c-5.75-17.232-0.171-36.214,13.962-47.602l73.013-58.807
	c16.878-13.603,35.146-25.578,54.338-35.685c17.382-9.161,29.249-27.314,29.249-48.35
	C495.699,246.811,483.665,228.55,466.083,219.447z"/>
</svg>
