<?xml version="1.0" encoding="UTF-8" standalone="no"?>
<!DOCTYPE svg PUBLIC "-//W3C//DTD SVG 1.1//EN" "http://www.w3.org/Graphics/SVG/1.1/DTD/svg11.dtd">
<svg width="100%" height="100%" viewBox="0 0 800 800" version="1.1" xmlns="http://www.w3.org/2000/svg" xmlns:xlink="http://www.w3.org/1999/xlink" xml:space="preserve" xmlns:serif="http://www.serif.com/" style="fill-rule:evenodd;clip-rule:evenodd;stroke-linejoin:round;stroke-miterlimit:2;">
    <g transform="matrix(1.613883,0,0,1.613883,0,0)">
        <path d="M466.083,219.447C483.665,228.55 495.699,246.811 495.701,267.979C495.701,289.015 483.834,307.168 466.452,316.329C447.26,326.436 428.992,338.411 412.114,352.014L339.101,410.821C324.968,422.209 319.389,441.191 325.139,458.423C326.46,462.388 325.792,466.756 323.346,470.15C320.915,473.544 316.977,475.553 312.785,475.553L182.916,475.553C178.725,475.553 174.788,473.544 172.357,470.15C169.909,466.756 169.242,462.388 170.562,458.423C176.312,441.185 170.733,422.201 156.585,410.815L83.439,351.913C66.724,338.463 48.205,326.326 29.229,316.33C11.865,307.168 0,289.005 0,267.98C0,246.811 12.018,228.557 29.58,219.457C32.833,217.769 35.232,214.786 36.168,211.248C37.108,207.722 36.539,203.952 34.56,200.867C23.882,184.205 22.611,162.383 33.186,144.064C43.78,125.725 63.321,115.935 83.067,116.835C86.723,117 90.274,115.627 92.872,113.037C95.456,110.454 96.829,106.894 96.679,103.239C95.773,83.478 105.579,63.944 123.899,53.358C142.219,42.764 164.041,44.039 180.702,54.706C183.786,56.678 187.558,57.255 191.095,56.307C194.633,55.352 197.598,52.973 199.294,49.723C208.391,32.163 226.646,20.145 247.814,20.145C268.968,20.145 287.224,32.156 296.341,49.723C298.017,52.965 300.981,55.363 304.518,56.307C308.057,57.255 311.829,56.669 314.912,54.698C331.59,44.006 353.444,42.722 371.768,53.309C390.087,63.903 399.891,83.446 398.984,103.213C398.82,106.869 400.209,110.432 402.81,113.011C405.389,115.6 408.941,116.976 412.596,116.809C432.357,115.903 451.889,125.693 462.479,144.038C473.092,162.376 471.8,184.191 461.123,200.858C459.143,203.944 458.556,207.715 459.495,211.249C460.452,214.786 462.833,217.762 466.083,219.447ZM415.397,220.797C420.593,212.836 418.347,202.159 410.381,196.962C402.422,191.768 391.744,194.004 386.548,201.973L318.178,275.703C316.419,278.395 316.803,282.031 319.235,284.285C321.951,286.791 326.19,286.62 328.706,283.913L413.603,223.078C414.222,222.399 414.877,221.594 415.397,220.797ZM175.576,284.97C178.659,282.952 179.532,278.801 177.518,275.703L109.147,201.973C108.646,201.203 108.023,200.392 107.371,199.692C100.919,192.704 90.022,192.277 83.035,198.738C76.062,205.201 75.626,216.096 82.093,223.078L166.993,283.913C169.171,286.27 172.792,286.783 175.576,284.97ZM265.013,120.556C265.046,119.916 265.046,119.249 265.013,118.596C264.478,109.116 256.348,101.875 246.879,102.41C237.392,102.957 230.15,111.078 230.687,120.556L240.571,246.418L241.179,254.916C241.362,258.268 244.044,261.01 247.464,261.21C251.153,261.42 254.302,258.604 254.521,254.916L265.013,120.556ZM208.059,273.451C211.66,272.682 213.976,269.128 213.187,265.528L176.815,132.917C176.684,132.282 176.481,131.542 176.262,130.915C173.178,121.938 163.388,117.169 154.407,120.261C145.42,123.356 140.659,133.143 143.762,142.122L200.346,269.095C201.423,272.255 204.721,274.172 208.059,273.451ZM184.467,321.104C170.788,321.104 159.682,332.21 159.682,345.889C159.682,359.568 170.788,370.674 184.467,370.674C198.146,370.674 209.252,359.568 209.252,345.889C209.252,332.21 198.146,321.104 184.467,321.104ZM310.751,321.104C297.072,321.104 285.966,332.21 285.966,345.889C285.966,359.568 297.072,370.674 310.751,370.674C324.43,370.674 335.536,359.568 335.536,345.889C335.536,332.21 324.43,321.104 310.751,321.104ZM247.609,321.104C233.93,321.104 222.824,332.21 222.824,345.889C222.824,359.568 233.93,370.674 247.609,370.674C261.288,370.674 272.394,359.568 272.394,345.889C272.394,332.21 261.288,321.104 247.609,321.104ZM295.352,269.095L351.942,142.122C352.154,141.499 352.36,140.77 352.512,140.118C354.487,130.832 348.589,121.696 339.301,119.703C330.016,117.716 320.865,123.634 318.887,132.917L282.512,265.528C281.81,268.778 283.634,272.13 286.869,273.245C290.359,274.442 294.161,272.591 295.352,269.095Z"/>
    </g>
</svg>
